<?xml version="1.0" encoding="utf-8"?>
<!-- Generator: Adobe Illustrator 23.0.3, SVG Export Plug-In . SVG Version: 6.00 Build 0)  -->
<svg version="1.1" id="圖層_1" xmlns="http://www.w3.org/2000/svg" xmlns:xlink="http://www.w3.org/1999/xlink" x="0px" y="0px"
	 viewBox="0 0 368.9 55.9" style="enable-background:new 0 0 368.9 55.9;" xml:space="preserve">
<style type="text/css">
	.st0{fill:#C11A1F;}
	.st1{fill:#FFFFFF;}
</style>
<g>
	<g>
		<polygon class="st0" points="132.9,34.9 130.9,53.1 129,34.9 		"/>
		<path class="st1" d="M27.8,39.5c-2.5-1.1-4-1.6-5.5-1.6c-1.6,0-2.5,0.6-2.5,1.4c0,2.6,8.8,1.9,8.8,8c0,3.4-2.8,5.3-6.7,5.3
			c-3,0-4.5-0.8-6.3-1.7v-3.8c2.5,1.7,4,2.3,5.9,2.3c1.7,0,2.5-0.6,2.5-1.6c0-2.9-8.8-1.8-8.8-8.1c0-3,2.6-5,6.6-5
			c1.9,0,3.7,0.4,5.9,1.4V39.5z"/>
		<path class="st1" d="M44.3,52.5H31.6V35h12.6v3.2h-8.3v3.7h7.9v3.2h-7.9v4.2h8.5V52.5z"/>
		<path class="st1" d="M60.5,52.5H47.7V35h12.6v3.2H52v3.7h7.9v3.2H52v4.2h8.5V52.5z"/>
		<path class="st1" d="M68.1,38.2h2.8c4.1,0,5.7,2.5,5.7,5.6c0,2.6-1.3,5.6-5.6,5.6h-2.8V38.2z M63.8,35v17.5h7.2
			c6.9,0,10.1-3.7,10.1-8.7c0-4.8-3.3-8.8-9.6-8.8H63.8z"/>
		<path class="st1" d="M85.6,36.1h4.8c4.7,0,7.9,3.1,7.9,7.6c0,4.9-3.7,7.6-7.9,7.6h-4.9V36.1z M84.3,35v17.5h6.3
			c6.9,0,9.2-4.7,9.2-8.8c0-3.9-2.1-8.8-9.5-8.8H84.3z"/>
		<path class="st1" d="M112.6,36.1h-8.1v7h7.9v1.1h-7.9v7.1h8.3v1.1h-9.7V35h9.5V36.1z"/>
		<path class="st1" d="M123.7,37.4c-1.8-1-2.7-1.3-3.9-1.3c-2.1,0-3.7,1.4-3.7,3.3c0,4.7,8.3,2.4,8.3,8.6c0,2.7-2.2,4.8-5,4.8
			c-1.4,0-2.9-0.5-4.5-1.5v-1.6c1.9,1.4,3,1.9,4.4,1.9c2.1,0,3.7-1.5,3.7-3.5c0-5-8.3-2.8-8.3-8.6c0-2.6,2.2-4.7,5-4.7
			c1.3,0,2.7,0.4,4,1.1V37.4z"/>
		<path class="st1" d="M151.5,37.8c-2.1-1.2-4.1-1.8-6.1-1.8c-4.4,0-7.7,3.3-7.7,7.7c0,3.9,2.6,7.7,8,7.7c2,0,3.4-0.4,4.8-1.1v-4.7
			h-3.7v-1.1h5v6.7c-2.1,1-4.1,1.5-6.2,1.5c-5.4,0-9.4-3.9-9.4-9.1c0-5.1,3.9-8.9,9.3-8.9c2,0,3.5,0.4,5.9,1.5V37.8z"/>
		<path class="st1" d="M170.8,52.5h-1.1l-13.2-15.3v15.3h-1.4V35h1.1l13.1,15.3V35h1.4V52.5z"/>
		<path class="st0" d="M9.4,43.5c-3.6-5.9-6.8-8.8-3.4-15.2c0,0-6.9,6.2-1.1,13.7c1.5,2,2.3,3.5,2.6,4.8c0.1,0.3,0.1,0.7,0.1,1.1
			c0,0,0,0,0,0c0,0.4-0.1,0.7-0.1,1C7.1,50.1,6.2,51,5.1,51c-0.3,0-0.7-0.1-0.9-0.2c-1.3-0.6-3.4-3.4-0.9-9.6c0,0-2.7,2.7-2.8,7
			c-0.1,4.4,2.4,6.4,4.9,6.6C9.2,55,13,49.5,9.4,43.5z"/>
	</g>
	<path class="st1" d="M209.4,49.4h-11.3v-0.9h3.1c-0.1-0.2-0.2-0.5-0.4-0.8h-1.2v-2.4h8.4v2.4h-1.2l-0.4,0.8h3.1V49.4z M209.1,43.2
		h-4.8v0.6h4.2v0.9H199v-0.9h4.2v-0.6h-4.8v-0.9h4.8v-0.7h1.2v0.7h4.8V43.2z M208.3,53h-1.2v-0.5h-6.7V53h-1.2v-3h9.1V53z
		 M207.1,51.6v-0.7h-6.7v0.7H207.1z M206.8,46.8v-0.7h-6v0.7H206.8z M205.4,47.6h-3.3c0.1,0.3,0.3,0.6,0.3,0.8h2.6L205.4,47.6z"/>
	<path class="st1" d="M225,52.9h-1.1V52h-2.4v1h-1.2v-9.5h1.2c0.3-0.6,0.6-1.3,0.8-2l1.2,0.2c-0.1,0.4-0.3,1-0.6,1.8h2.1V52.9z
		 M223.9,47.1v-2.4h-2.4v2.4H223.9z M223.9,50.9v-2.7h-2.4v2.7H223.9z M231.3,43.6c0,1.2-0.1,2.9-0.1,4.8c-0.1,2-0.2,3.2-0.4,3.5
		c-0.2,0.4-0.4,0.6-0.7,0.8c-0.3,0.2-1.1,0.3-2.3,0.3l-0.4-1.1l1.7,0c0.2,0,0.3-0.1,0.5-0.2c0.2-0.1,0.3-1.1,0.4-2.8
		c0.1-1.7,0.1-3.1,0.1-4.1h-2.6c-0.4,1-0.9,1.9-1.4,2.6l-0.9-0.8c0.9-1.5,1.6-3.2,2-5.1l1.1,0.2c-0.1,0.4-0.2,1-0.5,1.8H231.3z
		 M229.4,49.4l-1,0.7c-0.6-1.1-1.2-2.1-1.8-2.8l1-0.6C228.5,47.7,229.1,48.6,229.4,49.4z"/>
	<path class="st1" d="M243.8,47.7c-0.1,1.2-0.2,2.4-0.5,3.5l-1-0.5c0.2-0.9,0.4-1.9,0.5-3.2L243.8,47.7z M243.8,44.9l-0.9,0.4
		c-0.2-1.1-0.3-2-0.5-2.5l0.9-0.3C243.5,43.3,243.7,44.1,243.8,44.9z M246.6,46.8h-1.3V53h-1.1v-6.1h-1.8v-1.1h1.8v-4h1.1v4h1.3
		V46.8z M246.8,42.8c-0.1,0.8-0.2,1.6-0.4,2.4l-0.9-0.3c0.2-0.7,0.3-1.5,0.4-2.4L246.8,42.8z M246.8,50.5l-1,0.3
		c0-1.1-0.1-2.1-0.2-3.1l0.9-0.2C246.7,48.8,246.8,49.8,246.8,50.5z M253.2,51.8c0,0.3-0.1,0.6-0.4,0.9c-0.2,0.2-0.8,0.3-1.7,0.3
		l-0.4-1.1l1.1,0c0.1,0,0.2-0.1,0.2-0.2V51h-3.6c-0.2,0.8-0.5,1.5-0.9,2.1l-0.8-0.8c0.5-0.7,0.7-1.6,0.7-2.9V47h5.7V51.8z
		 M253.7,46.3h-6.8v-0.9h2.8v-0.7h-2.4v-0.8h2.4v-0.6h-2.6v-0.9h2.6v-0.7h1.1v0.7h2.7v0.9h-2.7v0.6h2.5v0.8h-2.5v0.7h2.9V46.3z
		 M252,50.1v-0.7h-3.5c0,0.2,0,0.5,0,0.7H252z M252,48.6v-0.6h-3.5v0.6H252z"/>
	<path class="st1" d="M269.6,53h-1.2v-0.7H266V53h-1.1v-5.9h4.7V53z M268.4,51.3v-3.1H266v3.1H268.4z M274.2,46h-8v-4.1h8V46z
		 M273,44.9v-2h-5.6v2H273z M275.4,53h-1.1v-0.7h-2.4V53h-1.1v-5.9h4.7V53z M274.3,51.3v-3.1h-2.4v3.1H274.3z"/>
	<path class="st1" d="M288,47l-0.9,0.4c-0.1-1.1-0.3-2.1-0.5-3.1l0.9-0.4C287.7,45,287.9,46.1,288,47z M290.8,51l-0.9,0.7
		c-0.3-0.6-0.6-1.2-1-1.8c-0.3,1.1-0.8,2.1-1.6,3l-0.8-1c1.1-1.2,1.6-2.9,1.6-5.1v-5.3h1.1v3c0.2-0.3,0.4-0.6,0.5-1l0.8,0.8
		c-0.4,0.7-0.9,1.4-1.4,1.9c0,0.8,0,1.6-0.1,2.2C289.9,49.5,290.4,50.3,290.8,51z M298.1,46l-0.6,0.9c-0.6-0.4-1.2-0.9-1.7-1.5v0.8
		h-3.6v-0.6c-0.6,0.6-1.1,1.1-1.6,1.4l-0.7-0.9c0.6-0.4,1.1-0.8,1.4-1.2c-0.3-0.4-0.6-0.7-0.9-1l0.7-0.8c0.3,0.3,0.6,0.5,0.8,0.9
		c0.2-0.3,0.4-0.7,0.6-1.2h-2v-1h3.1v1c-0.3,0.9-0.7,1.7-1.3,2.4h3.2c-0.7-0.9-1.2-2-1.5-3.4l1-0.3c0,0.2,0.1,0.5,0.2,0.8
		c0.3-0.2,0.5-0.4,0.7-0.6l0.7,0.8c-0.3,0.3-0.6,0.6-1,0.9c0.1,0.2,0.2,0.3,0.2,0.4c0.4-0.2,0.8-0.6,1.1-1l0.8,0.7
		c-0.3,0.4-0.7,0.7-1.3,1.1C296.9,45,297.4,45.4,298.1,46z M298,52.8h-7.5v-1h1.8c-0.1-0.3-0.2-0.8-0.5-1.3l0.9-0.5h-1.4v-3h5.5v3
		h-1.3l0.8,0.4c-0.2,0.5-0.3,0.9-0.5,1.4h2.2V52.8z M295.7,49v-1h-3.2v1H295.7z M295.2,50h-2.3c0.3,0.6,0.5,1.2,0.7,1.8h1.1
		C294.8,51.3,295,50.7,295.2,50z"/>
	<path class="st1" d="M314.1,43.7l-0.8,0.9c-0.2-0.3-0.4-0.4-0.5-0.5v0.7h-2.6v-0.5c-0.3,0.3-0.7,0.5-1.1,0.8l-0.4-1.1
		c1-0.6,1.9-1.5,2.6-2.5l1.1,0.4c0,0.1-0.1,0.2-0.1,0.3C313,42.6,313.6,43.2,314.1,43.7z M314.1,52.2l-1,0.5
		c-0.1-0.3-0.2-0.6-0.4-0.8c-1.2,0.6-2.3,1-3.3,1.2l-0.4-1c0.2-0.1,0.3-0.3,0.3-0.5v-6.2h4.1v4.2h-3v2.1c0.5-0.2,1-0.4,1.7-0.7
		c-0.1-0.2-0.2-0.4-0.4-0.6l1-0.5C313.3,50.5,313.8,51.3,314.1,52.2z M312.5,46.9v-0.6h-1.9v0.6H312.5z M312.5,48.5v-0.6h-1.9v0.6
		H312.5z M312.6,43.8c-0.4-0.4-0.7-0.7-1-0.9c-0.3,0.4-0.6,0.7-0.9,0.9H312.6z M320.2,44h-2.4v1.5h2.1v5.6c0,0.3-0.1,0.6-0.3,0.8
		c-0.2,0.2-0.6,0.3-1.4,0.2L318,51c0.3,0,0.6,0,0.7,0c0.1,0,0.2-0.1,0.2-0.3v-4.2h-1V53h-1v-6.4h-1v5.5h-1v-6.6h2.1V44h-1
		c-0.4,0.5-0.8,1-1.3,1.5l-0.8-0.8c0.7-0.6,1.5-1.7,2.2-3.1l1.1,0.3c-0.3,0.5-0.4,0.9-0.6,1.2h3.8V44z"/>
</g>
<g>
	<g>
		<polygon class="st0" points="132.7,6.7 130.8,24.8 128.8,6.7 		"/>
		<path d="M27.6,11.3c-2.5-1.1-4-1.6-5.5-1.6c-1.6,0-2.5,0.6-2.5,1.4c0,2.6,8.8,1.9,8.8,8c0,3.4-2.8,5.3-6.7,5.3
			c-3,0-4.5-0.8-6.3-1.7V19c2.5,1.7,4,2.3,5.9,2.3c1.7,0,2.5-0.6,2.5-1.6c0-2.9-8.8-1.8-8.8-8.1c0-3,2.6-5,6.6-5
			c1.9,0,3.7,0.4,5.9,1.4V11.3z"/>
		<path d="M44.2,24.3H31.4V6.7H44V10h-8.3v3.7h7.9v3.2h-7.9v4.2h8.5V24.3z"/>
		<path d="M60.3,24.3H47.5V6.7h12.6V10h-8.3v3.7h7.9v3.2h-7.9v4.2h8.5V24.3z"/>
		<path d="M67.9,10h2.8c4.1,0,5.7,2.5,5.7,5.6c0,2.6-1.3,5.6-5.6,5.6h-2.8V10z M63.6,6.7v17.5h7.2c6.9,0,10.1-3.7,10.1-8.7
			c0-4.8-3.3-8.8-9.6-8.8H63.6z"/>
		<path d="M85.5,7.9h4.8c4.7,0,7.9,3.1,7.9,7.6c0,4.9-3.7,7.6-7.9,7.6h-4.9V7.9z M84.1,6.7v17.5h6.3c6.9,0,9.2-4.7,9.2-8.8
			c0-3.9-2.1-8.8-9.5-8.8H84.1z"/>
		<path d="M112.4,7.9h-8.1v7h7.9V16h-7.9v7.1h8.3v1.1H103V6.7h9.5V7.9z"/>
		<path d="M123.6,9.1c-1.8-1-2.7-1.3-3.9-1.3c-2.1,0-3.7,1.4-3.7,3.3c0,4.7,8.3,2.4,8.3,8.6c0,2.7-2.2,4.8-5,4.8
			c-1.4,0-2.9-0.5-4.5-1.5v-1.6c1.9,1.4,3,1.9,4.4,1.9c2.1,0,3.7-1.5,3.7-3.5c0-5-8.3-2.8-8.3-8.6c0-2.6,2.2-4.7,5-4.7
			c1.3,0,2.7,0.4,4,1.1V9.1z"/>
		<path d="M151.3,9.5c-2.1-1.2-4.1-1.8-6.1-1.8c-4.4,0-7.7,3.3-7.7,7.7c0,3.9,2.6,7.7,8,7.7c2,0,3.4-0.4,4.8-1.1v-4.7h-3.7v-1.1h5
			V23c-2.1,1-4.1,1.5-6.2,1.5c-5.4,0-9.4-3.9-9.4-9.1c0-5.1,3.9-8.9,9.3-8.9c2,0,3.5,0.4,5.9,1.5V9.5z"/>
		<path d="M170.7,24.3h-1.1L156.4,9v15.3H155V6.7h1.1l13.1,15.3V6.7h1.4V24.3z"/>
		<path class="st0" d="M9.2,15.2C5.6,9.3,2.4,6.4,5.8,0c0,0-6.9,6.2-1.1,13.7c1.5,2,2.3,3.5,2.6,4.8c0.1,0.3,0.1,0.7,0.1,1.1
			c0,0,0,0,0,0c0,0.4-0.1,0.7-0.1,1c-0.3,1.2-1.3,2.1-2.4,2.1c-0.3,0-0.7-0.1-0.9-0.2c-1.3-0.6-3.4-3.4-0.9-9.6c0,0-2.7,2.7-2.8,7
			c-0.1,4.4,2.4,6.4,4.9,6.6C9,26.7,12.8,21.2,9.2,15.2z"/>
	</g>
	<path d="M209.2,21.1h-11.3v-0.9h3.1c-0.1-0.2-0.2-0.5-0.4-0.8h-1.2V17h8.4v2.4h-1.2l-0.4,0.8h3.1V21.1z M208.9,14.9h-4.8v0.6h4.2
		v0.9h-9.6v-0.9h4.2v-0.6h-4.8V14h4.8v-0.7h1.2V14h4.8V14.9z M208.1,24.7h-1.2v-0.5h-6.7v0.5H199v-3h9.1V24.7z M206.9,23.3v-0.7
		h-6.7v0.7H206.9z M206.6,18.5v-0.7h-6v0.7H206.6z M205.3,19.4h-3.3c0.1,0.3,0.3,0.6,0.3,0.8h2.6L205.3,19.4z"/>
	<path d="M224.9,24.6h-1.1v-0.9h-2.4v1h-1.2v-9.5h1.2c0.3-0.6,0.6-1.3,0.8-2l1.2,0.2c-0.1,0.4-0.3,1-0.6,1.8h2.1V24.6z M223.7,18.8
		v-2.4h-2.4v2.4H223.7z M223.7,22.6v-2.7h-2.4v2.7H223.7z M231.2,15.3c0,1.2-0.1,2.9-0.1,4.8c-0.1,2-0.2,3.2-0.4,3.5
		c-0.2,0.4-0.4,0.6-0.7,0.8c-0.3,0.2-1.1,0.3-2.3,0.3l-0.4-1.1l1.7,0c0.2,0,0.3-0.1,0.5-0.2c0.2-0.1,0.3-1.1,0.4-2.8
		c0.1-1.7,0.1-3.1,0.1-4.1h-2.6c-0.4,1-0.9,1.9-1.4,2.6l-0.9-0.8c0.9-1.5,1.6-3.2,2-5.1l1.1,0.2c-0.1,0.4-0.2,1-0.5,1.8H231.2z
		 M229.3,21.2l-1,0.7c-0.6-1.1-1.2-2.1-1.8-2.8l1-0.6C228.3,19.5,228.9,20.4,229.3,21.2z"/>
	<path d="M243.6,19.4c-0.1,1.2-0.2,2.4-0.5,3.5l-1-0.5c0.2-0.9,0.4-1.9,0.5-3.2L243.6,19.4z M243.6,16.7l-0.9,0.4
		c-0.2-1.1-0.3-2-0.5-2.5l0.9-0.3C243.4,15,243.5,15.9,243.6,16.7z M246.4,18.6h-1.3v6.1H244v-6.1h-1.8v-1.1h1.8v-4h1.1v4h1.3V18.6z
		 M246.7,14.6c-0.1,0.8-0.2,1.6-0.4,2.4l-0.9-0.3c0.2-0.7,0.3-1.5,0.4-2.4L246.7,14.6z M246.7,22.2l-1,0.3c0-1.1-0.1-2.1-0.2-3.1
		l0.9-0.2C246.5,20.5,246.6,21.5,246.7,22.2z M253,23.6c0,0.3-0.1,0.6-0.4,0.9c-0.2,0.2-0.8,0.3-1.7,0.3l-0.4-1.1l1.1,0
		c0.1,0,0.2-0.1,0.2-0.2v-0.7h-3.6c-0.2,0.8-0.5,1.5-0.9,2.1l-0.8-0.8c0.5-0.7,0.7-1.6,0.7-2.9v-2.4h5.7V23.6z M253.6,18.1h-6.8
		v-0.9h2.8v-0.7h-2.4v-0.8h2.4v-0.6h-2.6v-0.9h2.6v-0.7h1.1v0.7h2.7v0.9h-2.7v0.6h2.5v0.8h-2.5v0.7h2.9V18.1z M251.9,21.9v-0.7h-3.5
		c0,0.2,0,0.5,0,0.7H251.9z M251.9,20.3v-0.6h-3.5v0.6H251.9z"/>
	<path d="M269.4,24.7h-1.2v-0.7h-2.4v0.7h-1.1v-5.9h4.7V24.7z M268.3,23v-3.1h-2.4V23H268.3z M274,17.7h-8v-4.1h8V17.7z M272.8,16.7
		v-2h-5.6v2H272.8z M275.2,24.7h-1.1v-0.7h-2.4v0.7h-1.1v-5.9h4.7V24.7z M274.1,23v-3.1h-2.4V23H274.1z"/>
	<path d="M287.8,18.8l-0.9,0.4c-0.1-1.1-0.3-2.1-0.5-3.1l0.9-0.4C287.5,16.8,287.7,17.8,287.8,18.8z M290.6,22.8l-0.9,0.7
		c-0.3-0.6-0.6-1.2-1-1.8c-0.3,1.1-0.8,2.1-1.6,3l-0.8-1c1.1-1.2,1.6-2.9,1.6-5.1v-5.3h1.1v3c0.2-0.3,0.4-0.6,0.5-1l0.8,0.8
		c-0.4,0.7-0.9,1.4-1.4,1.9c0,0.8,0,1.6-0.1,2.2C289.7,21.2,290.2,22,290.6,22.8z M297.9,17.7l-0.6,0.9c-0.6-0.4-1.2-0.9-1.7-1.5V18
		h-3.6v-0.6c-0.6,0.6-1.1,1.1-1.6,1.4l-0.7-0.9c0.6-0.4,1.1-0.8,1.4-1.2c-0.3-0.4-0.6-0.7-0.9-1l0.7-0.8c0.3,0.3,0.6,0.5,0.8,0.9
		c0.2-0.3,0.4-0.7,0.6-1.2h-2v-1h3.1v1c-0.3,0.9-0.7,1.7-1.3,2.4h3.2c-0.7-0.9-1.2-2-1.5-3.4l1-0.3c0,0.2,0.1,0.5,0.2,0.8
		c0.3-0.2,0.5-0.4,0.7-0.6l0.7,0.8c-0.3,0.3-0.6,0.6-1,0.9c0.1,0.2,0.2,0.3,0.2,0.4c0.4-0.2,0.8-0.6,1.1-1l0.8,0.7
		c-0.3,0.4-0.7,0.7-1.3,1.1C296.7,16.7,297.2,17.2,297.9,17.7z M297.8,24.5h-7.5v-1h1.8c-0.1-0.3-0.2-0.8-0.5-1.3l0.9-0.5h-1.4v-3
		h5.5v3h-1.3l0.8,0.4c-0.2,0.5-0.3,0.9-0.5,1.4h2.2V24.5z M295.5,20.7v-1h-3.2v1H295.5z M295,21.7h-2.3c0.3,0.6,0.5,1.2,0.7,1.8h1.1
		C294.6,23,294.8,22.4,295,21.7z"/>
	<path d="M314,15.4l-0.8,0.9c-0.2-0.3-0.4-0.4-0.5-0.5v0.7h-2.6V16c-0.3,0.3-0.7,0.5-1.1,0.8l-0.4-1.1c1-0.6,1.9-1.5,2.6-2.5
		l1.1,0.4c0,0.1-0.1,0.2-0.1,0.3C312.9,14.4,313.5,14.9,314,15.4z M313.9,23.9l-1,0.5c-0.1-0.3-0.2-0.6-0.4-0.8
		c-1.2,0.6-2.3,1-3.3,1.2l-0.4-1c0.2-0.1,0.3-0.3,0.3-0.5v-6.2h4.1v4.2h-3v2.1c0.5-0.2,1-0.4,1.7-0.7c-0.1-0.2-0.2-0.4-0.4-0.6
		l1-0.5C313.2,22.2,313.6,23,313.9,23.9z M312.3,18.7v-0.6h-1.9v0.6H312.3z M312.3,20.2v-0.6h-1.9v0.6H312.3z M312.5,15.6
		c-0.4-0.4-0.7-0.7-1-0.9c-0.3,0.4-0.6,0.7-0.9,0.9H312.5z M320,15.8h-2.4v1.5h2.1v5.6c0,0.3-0.1,0.6-0.3,0.8
		c-0.2,0.2-0.6,0.3-1.4,0.2l-0.3-1.1c0.3,0,0.6,0,0.7,0c0.1,0,0.2-0.1,0.2-0.3v-4.2h-1v6.4h-1v-6.4h-1v5.5h-1v-6.6h2.1v-1.5h-1
		c-0.4,0.5-0.8,1-1.3,1.5l-0.8-0.8c0.7-0.6,1.5-1.7,2.2-3.1l1.1,0.3c-0.3,0.5-0.4,0.9-0.6,1.2h3.8V15.8z"/>
</g>
</svg>
