<?xml version="1.0" encoding="utf-8"?>
<!-- Generator: Adobe Illustrator 23.0.6, SVG Export Plug-In . SVG Version: 6.00 Build 0)  -->
<svg version="1.1" id="圖層_1" xmlns="http://www.w3.org/2000/svg" xmlns:xlink="http://www.w3.org/1999/xlink" x="0px" y="0px"
	 viewBox="0 0 171.4 27.6" style="enable-background:new 0 0 171.4 27.6;" xml:space="preserve">
<style type="text/css">
	.st0{fill:#B71F22;}
	.st1{fill:#040000;}
</style>
<g>
	<polygon class="st0" points="132.9,7.2 131,25.3 129,7.2 	"/>
	<path class="st1" d="M27.8,11.8c-2.5-1.1-4-1.6-5.5-1.6c-1.6,0-2.5,0.6-2.5,1.4c0,2.6,8.8,1.9,8.8,8c0,3.4-2.8,5.3-6.7,5.3
		c-3,0-4.5-0.8-6.3-1.7v-3.7c2.5,1.7,4,2.3,5.9,2.3c1.7,0,2.5-0.6,2.5-1.6c0-2.9-8.8-1.8-8.8-8.1c0-3,2.6-5,6.6-5
		c1.9,0,3.7,0.4,5.9,1.4v3.3H27.8z"/>
	<path class="st1" d="M44.4,24.8H31.6V7.2h12.6v3.3h-8.3v3.7h7.9v3.2h-7.9v4.2h8.5V24.8z"/>
	<path class="st1" d="M60.5,24.8H47.7V7.2h12.6v3.3H52v3.7h7.9v3.2H52v4.2h8.5V24.8z"/>
	<path class="st1" d="M68.1,10.5h2.8c4.1,0,5.7,2.5,5.7,5.6c0,2.6-1.3,5.6-5.6,5.6h-2.8L68.1,10.5L68.1,10.5z M63.8,7.2v17.5H71
		c6.9,0,10.1-3.7,10.1-8.7c0-4.8-3.3-8.8-9.6-8.8C71.5,7.2,63.8,7.2,63.8,7.2z"/>
	<path class="st1" d="M85.7,8.4h4.8c4.7,0,7.9,3.1,7.9,7.6c0,4.9-3.7,7.6-7.9,7.6h-4.9L85.7,8.4L85.7,8.4z M84.3,7.2v17.5h6.3
		c6.9,0,9.2-4.7,9.2-8.8c0-3.9-2.1-8.8-9.5-8.8L84.3,7.2L84.3,7.2z"/>
	<path class="st1" d="M112.6,8.4h-8.1v7h7.9v1.1h-7.9v7.1h8.3v1.1h-9.6V7.2h9.5L112.6,8.4L112.6,8.4z"/>
	<path class="st1" d="M123.8,9.6c-1.8-1-2.7-1.3-3.9-1.3c-2.1,0-3.7,1.4-3.7,3.3c0,4.7,8.3,2.4,8.3,8.6c0,2.7-2.2,4.8-5,4.8
		c-1.4,0-2.9-0.5-4.5-1.5v-1.6c1.9,1.4,3,1.9,4.4,1.9c2.1,0,3.7-1.5,3.7-3.5c0-5-8.3-2.8-8.3-8.6c0-2.6,2.2-4.7,5-4.7
		c1.3,0,2.7,0.4,4,1.1V9.6z"/>
	<path class="st1" d="M151.5,10c-2.1-1.2-4.1-1.8-6.1-1.8c-4.4,0-7.7,3.3-7.7,7.7c0,3.9,2.6,7.7,8,7.7c2,0,3.4-0.4,4.8-1.1v-4.7
		h-3.7v-1.1h5v6.8c-2.1,1-4.1,1.5-6.2,1.5c-5.4,0-9.4-3.9-9.4-9.1c0-5.1,3.9-8.9,9.3-8.9c2,0,3.5,0.4,5.9,1.5L151.5,10L151.5,10z"/>
	<path class="st1" d="M170.9,24.8h-1.1L156.6,9.5v15.3h-1.4V7.2h1.1l13.1,15.3V7.2h1.4L170.9,24.8L170.9,24.8z"/>
	<path class="st0" d="M9.4,15.7C5.8,9.8,2.6,6.9,6,0.5c0,0-6.9,6.2-1.1,13.7c1.5,2,2.3,3.5,2.6,4.8c0.1,0.3,0.1,0.7,0.1,1.1l0,0
		c0,0.4-0.1,0.7-0.1,1c-0.3,1.2-1.3,2.1-2.4,2.1c-0.3,0-0.7-0.1-0.9-0.2c-1.3-0.6-3.4-3.4-0.9-9.6c0,0-2.7,2.7-2.8,7
		c-0.1,4.4,2.4,6.4,4.9,6.6C9.2,27.2,13,21.7,9.4,15.7z"/>
</g>
</svg>
